<?xml version="1.0" standalone="no"?>
<!DOCTYPE svg PUBLIC "-//W3C//DTD SVG 20010904//EN"
 "http://www.w3.org/TR/2001/REC-SVG-20010904/DTD/svg10.dtd">
<svg version="1.0" xmlns="http://www.w3.org/2000/svg"
 width="200.000000pt" height="200.000000pt" viewBox="0 0 200.000000 200.000000"
 preserveAspectRatio="xMidYMid meet">

<g transform="translate(0.000000,200.000000) scale(0.100000,-0.100000)"
fill="#000000" stroke="none">
<path d="M901 1920 c-95 -23 -166 -119 -165 -220 0 -31 6 -65 12 -75 8 -16 4
-26 -25 -58 -71 -79 -118 -216 -129 -374 l-7 -93 -31 0 c-17 0 -42 -7 -54 -16
l-22 -15 0 -450 0 -449 -83 0 c-51 0 -88 -5 -95 -12 -19 -19 -15 -66 7 -78 13
-6 235 -10 650 -10 618 0 631 0 651 20 49 49 11 80 -98 80 l-82 0 0 448 c0
422 -1 450 -18 465 -10 10 -34 17 -54 17 l-35 0 -6 98 c-10 158 -50 275 -123
360 -36 42 -36 42 -24 92 25 103 -22 206 -115 253 -39 20 -111 28 -154 17z
m110 -105 c37 -20 69 -70 69 -110 0 -63 -63 -125 -127 -125 -42 0 -92 36 -109
77 -27 62 0 133 59 158 42 19 71 18 108 0z m-121 -320 c51 -19 108 -15 164 11
35 17 36 17 61 -6 58 -55 104 -202 105 -332 l0 -68 -50 0 c-27 0 -50 3 -50 8
0 4 11 25 25 47 33 54 32 89 -2 113 -68 46 -206 113 -223 107 -10 -3 -32 -30
-49 -60 -17 -30 -34 -55 -37 -55 -3 0 -33 14 -65 31 -67 36 -67 41 -21 134 30
63 62 98 82 91 8 -2 35 -12 60 -21z m142 -339 l-27 -51 -68 -3 -68 -3 41 80
40 81 55 -27 54 -27 -27 -50z m-242 8 c0 -3 -7 -18 -15 -34 -13 -25 -22 -30
-50 -30 l-35 0 0 60 0 60 50 -25 c28 -14 50 -28 50 -31z m540 -579 l0 -415
-375 0 -375 0 0 415 0 415 375 0 375 0 0 -415z"/>
</g>
</svg>
