<?xml version="1.0" standalone="no"?>
<!DOCTYPE svg PUBLIC "-//W3C//DTD SVG 20010904//EN"
 "http://www.w3.org/TR/2001/REC-SVG-20010904/DTD/svg10.dtd">
<svg version="1.0" xmlns="http://www.w3.org/2000/svg"
 width="200.000000pt" height="200.000000pt" viewBox="0 0 200.000000 200.000000"
 preserveAspectRatio="xMidYMid meet">

<g transform="translate(0.000000,200.000000) scale(0.100000,-0.100000)"
fill="#000000" stroke="none">
<path d="M865 1906 c-41 -18 -100 -85 -115 -131 -8 -24 -11 -63 -7 -105 5 -65
4 -69 -30 -116 -69 -95 -105 -209 -119 -370 l-7 -82 -39 -5 c-72 -10 -68 20
-68 -478 l0 -449 -76 0 c-85 0 -114 -11 -114 -43 1 -55 -34 -52 659 -52 l640
0 22 22 c44 44 0 73 -111 73 l-69 0 -3 451 c-3 433 -4 451 -22 465 -11 8 -34
14 -51 14 l-32 0 -7 93 c-11 162 -47 268 -126 373 -30 39 -30 42 -20 89 22 96
-27 203 -112 244 -51 24 -145 28 -193 7z m144 -94 c36 -19 71 -72 71 -107 0
-35 -35 -88 -71 -107 -63 -35 -134 -5 -166 70 -25 60 9 129 77 155 28 10 55 7
89 -11z m16 -313 l68 22 22 -21 c53 -50 104 -217 105 -337 l0 -63 -43 0 c-24
0 -46 3 -50 6 -3 3 6 30 20 60 22 43 25 57 16 76 -13 29 -203 131 -236 126
-13 -2 -35 -22 -56 -53 -18 -27 -39 -49 -47 -49 -7 1 -34 14 -59 28 -34 21
-45 33 -45 52 0 31 44 119 74 149 l23 23 71 -21 70 -20 67 22z m7 -343 l-27
-51 -68 -3 -68 -3 41 80 40 81 55 -27 54 -27 -27 -50z m-242 8 c0 -11 -23 -49
-34 -56 -6 -4 -23 -8 -38 -8 -27 0 -28 1 -28 60 l0 60 50 -25 c28 -14 50 -28
50 -31z m540 -579 l0 -415 -375 0 -375 0 0 415 0 415 375 0 375 0 0 -415z"/>
<path d="M654 855 c-7 -19 -21 -51 -28 -70 -14 -33 -14 -35 3 -35 11 0 21 7
25 15 3 9 18 15 36 15 20 0 30 -5 30 -15 0 -8 9 -15 20 -15 20 0 20 0 -1 51
-40 102 -59 115 -85 54z m46 -37 c0 -5 -7 -8 -15 -8 -17 0 -18 2 -9 25 5 13 8
14 15 3 5 -7 9 -16 9 -20z"/>
<path d="M780 820 l0 -70 38 0 c55 0 82 23 82 70 0 47 -27 70 -82 70 l-38 0 0
-70z m86 15 c7 -29 -10 -55 -37 -55 -15 0 -19 8 -19 40 0 36 3 40 25 40 18 0
26 -7 31 -25z"/>
<path d="M936 868 c-3 -13 -6 -44 -6 -70 0 -35 4 -48 14 -48 10 0 16 14 19 43
l3 42 14 -32 c8 -18 20 -33 27 -33 7 0 20 15 30 33 l18 32 3 -42 c2 -29 8 -43
18 -43 15 0 18 38 8 103 -8 47 -29 48 -51 2 -9 -19 -20 -35 -23 -35 -3 0 -14
16 -23 35 -19 40 -42 46 -51 13z"/>
<path d="M1120 820 c0 -56 3 -70 15 -70 12 0 15 14 15 70 0 56 -3 70 -15 70
-12 0 -15 -14 -15 -70z"/>
<path d="M1190 820 c0 -56 3 -70 15 -70 11 0 15 11 15 41 0 37 2 40 16 28 8
-7 22 -25 30 -41 8 -15 21 -28 29 -28 12 0 15 15 15 70 0 56 -3 70 -15 70 -11
0 -15 -11 -15 -42 l0 -42 -31 42 c-46 62 -59 56 -59 -28z"/>
</g>
</svg>
